<mxfile compressed="false" type="device">
    <diagram id="Page-1" name="Page-1">
      <mxGraphModel arrows="1" connect="1" dx="1360" dy="864" fold="1" grid="1" gridSize="10" guides="1" math="0" page="1" pageHeight="1169" pageScale="1" pageWidth="827" shadow="1" tooltips="1">
        <root>
          <mxCell id="0" />   
          <mxCell id="1" parent="0" />
        <object id="node-1" label="node-1">
      <mxCell parent="1" style="rounded=1;whiteSpace=wrap;html=1;strokeColor=#C0C0C0;fontColor=#C0C0C0" vertex="1">
          <mxGeometry as="geometry" height="60" width="120" x="464" y="814" />
      </mxCell>
    </object><object id="node-2" label="node-2">
      <mxCell parent="1" style="rounded=1;whiteSpace=wrap;html=1;" vertex="1">
          <mxGeometry as="geometry" height="60" width="120" x="919" y="456" />
      </mxCell>
    </object><object id="node-3" label="node-3">
      <mxCell parent="1" style="rounded=1;whiteSpace=wrap;html=1;" vertex="1">
          <mxGeometry as="geometry" height="60" width="120" x="739" y="630" />
      </mxCell>
    </object><object a="b" c="d" id="node-4" label="node-4" link="http://google.com">
      <mxCell parent="1" style="rounded=1;whiteSpace=wrap;html=1;" vertex="1">
          <mxGeometry as="geometry" height="60" width="120" x="1081" y="627" />
      </mxCell>
    </object><object id="node-55" label="node-55">
      <mxCell parent="1" style="shape=mxgraph.cisco.routers.atm_tag_switch_router;html=1;pointerEvents=1;dashed=0;fillColor=#C0C0C0;strokeColor=#ffffff;strokeWidth=2;verticalLabelPosition=bottom;verticalAlign=top;align=center;outlineConnect=0;fontColor=#C0C0C0" vertex="1">
          <mxGeometry as="geometry" height="82" width="64" x="498" y="572" />
      </mxCell>
    </object><object id="98b6238be5acd1302f49c499f9173e32" label="bla1">
      <mxCell edge="1" parent="1" source="node-1" style="endArrow=none;strokeColor=#C0C0C0;fontColor=#C0C0C0" target="node-2">
          <mxGeometry as="geometry" relative="1" />
      </mxCell>
    </object><object id="c0b00b2fdeaaa6f41cab0ef2448ffcef" label="bla2">
      <mxCell edge="1" parent="1" source="node-2" style="endArrow=none;" target="node-3">
          <mxGeometry as="geometry" relative="1" />
      </mxCell>
    </object><object id="c8fe43e5ad1ce2c05bfc0b371d1fb987" label="bla3">
      <mxCell edge="1" parent="1" source="node-3" style="endArrow=none;strokeColor=#C0C0C0;fontColor=#C0C0C0" target="node-1">
          <mxGeometry as="geometry" relative="1" />
      </mxCell>
    </object><object id="3972a5fc4a57b84e0376216959d97b1c" label="bla4">
      <mxCell edge="1" parent="1" source="node-4" style="endArrow=none;" target="node-3">
          <mxGeometry as="geometry" relative="1" />
      </mxCell>
    </object><object id="3bcc8fa6567e3cc013263fa470f05f1e" label="bla155">
      <mxCell edge="1" parent="1" source="node-55" style="endArrow=none;strokeColor=#C0C0C0;fontColor=#C0C0C0" target="node-1">
          <mxGeometry as="geometry" relative="1" />
      </mxCell>
    </object><object id="node-99" label="node-99">
      <mxCell parent="1" style="rounded=1;whiteSpace=wrap;html=1;strokeColor=#00FF00;fontColor=#00FF00" vertex="1">
          <mxGeometry as="geometry" height="60" width="120" x="1023" y="116" />
      </mxCell>
    </object><object id="node-100" label="node-100">
      <mxCell parent="1" style="shape=mxgraph.cisco.routers.atm_router;html=1;pointerEvents=1;dashed=0;fillColor=#00FF00;strokeColor=#ffffff;strokeWidth=2;verticalLabelPosition=bottom;verticalAlign=top;align=center;outlineConnect=0;fontColor=#00FF00" vertex="1">
          <mxGeometry as="geometry" height="53" width="78" x="1137" y="443" />
      </mxCell>
    </object><object id="f81dfe91fecf34d0ea1d0ed1bf0b728a" label="bla99">
      <mxCell edge="1" parent="1" source="node-99" style="endArrow=none;strokeColor=#00FF00;fontColor=#00FF00" target="node-3">
          <mxGeometry as="geometry" relative="1" />
      </mxCell>
    </object><object id="0b4bddaeede7176277a37b87f8600c5d" label="bla10099">
      <mxCell edge="1" parent="1" source="node-100" style="endArrow=none;strokeColor=#00FF00;fontColor=#00FF00" target="node-99">
          <mxGeometry as="geometry" relative="1" />
      </mxCell>
    </object></root>
      </mxGraphModel>
    </diagram></mxfile>